# xmcd
#
# Track frame offsets: 
#        150
#        19468
#        35551
#        52972
#        68711
#        82790
#        100493
#        114035
#        131756
#        143098
#
# Disc length: 2134 seconds
#
# Revision: 0
# Processed by: cddbd v1.5.2PL0 Copyright (c) Steve Scherf et al.
# Submitted via: ExactAudioCopy v0.99pb4
#
DISCID=7f08540a
DTITLE=ภมร  พงศ์พันธ์ - ฮักสาวไหซอง
DYEAR=2008
DGENRE=Country
TTITLE0=ฮักสาวไหซอง
TTITLE1=งามแท้แม่ฮ่าง
TTITLE2=บักสองซาว
TTITLE3=คันแข่ว
TTITLE4=เซาจุ้ดปุ๊ด
TTITLE5=ข่าวสาวหนองแวง
TTITLE6=อดเบิ่งบ่ได้
TTITLE7=เปลี่ยนใจไม่อายคูณ
TTITLE8=การ์ดแต่งแสลงใจ
TTITLE9=ถืกถิ่มยังยิ้มได้
EXTD=
EXTT0=
EXTT1=
EXTT2=
EXTT3=
EXTT4=
EXTT5=
EXTT6=
EXTT7=
EXTT8=
EXTT9=
PLAYORDER=
